<mxfile host="app.diagrams.net" agent="Mozilla/5.0 (X11; Ubuntu; Linux x86_64; rv:134.0) Gecko/20100101 Firefox/134.0" version="26.0.7">
  <diagram name="Page-1" id="XhSktehYMyleb3IIx5zf">
    <mxGraphModel dx="618" dy="394" grid="1" gridSize="10" guides="1" tooltips="1" connect="1" arrows="1" fold="1" page="1" pageScale="1" pageWidth="827" pageHeight="1169" math="0" shadow="0">
      <root>
        <mxCell id="0" />
        <mxCell id="1" parent="0" />
        <mxCell id="vyA_7n0H-f_DJJAvZBDA-1" value="Pc HÃ´te" style="rounded=1;whiteSpace=wrap;html=1;" vertex="1" parent="1">
          <mxGeometry x="420" y="280" width="120" height="60" as="geometry" />
        </mxCell>
        <mxCell id="vyA_7n0H-f_DJJAvZBDA-7" value="Custer IP " style="rounded=1;whiteSpace=wrap;html=1;" vertex="1" parent="1">
          <mxGeometry x="420" y="420" width="120" height="60" as="geometry" />
        </mxCell>
        <mxCell id="vyA_7n0H-f_DJJAvZBDA-24" value="&lt;div&gt;10.42.2.60 et 10.0.0.100&lt;/div&gt;&lt;div&gt;Port 5000&lt;/div&gt;&lt;div&gt;&lt;br&gt;&lt;/div&gt;" style="text;whiteSpace=wrap;html=1;" vertex="1" parent="1">
          <mxGeometry x="490" y="530" width="160" height="40" as="geometry" />
        </mxCell>
        <mxCell id="vyA_7n0H-f_DJJAvZBDA-25" value="" style="endArrow=none;html=1;rounded=0;entryX=0.5;entryY=1;entryDx=0;entryDy=0;exitX=0.5;exitY=0;exitDx=0;exitDy=0;" edge="1" parent="1" source="vyA_7n0H-f_DJJAvZBDA-7" target="vyA_7n0H-f_DJJAvZBDA-1">
          <mxGeometry width="50" height="50" relative="1" as="geometry">
            <mxPoint x="520" y="440" as="sourcePoint" />
            <mxPoint x="570" y="390" as="targetPoint" />
          </mxGeometry>
        </mxCell>
        <mxCell id="vyA_7n0H-f_DJJAvZBDA-26" value="&lt;div&gt;Proxy&lt;/div&gt;&lt;div&gt;Port 80&lt;br&gt;&lt;/div&gt;" style="text;html=1;align=center;verticalAlign=middle;whiteSpace=wrap;rounded=0;" vertex="1" parent="1">
          <mxGeometry x="480" y="370" width="60" height="30" as="geometry" />
        </mxCell>
        <mxCell id="vyA_7n0H-f_DJJAvZBDA-27" value="" style="endArrow=classic;html=1;rounded=0;exitX=0.5;exitY=1;exitDx=0;exitDy=0;" edge="1" parent="1" source="vyA_7n0H-f_DJJAvZBDA-7" target="vyA_7n0H-f_DJJAvZBDA-28">
          <mxGeometry width="50" height="50" relative="1" as="geometry">
            <mxPoint x="520" y="610" as="sourcePoint" />
            <mxPoint x="570" y="560" as="targetPoint" />
          </mxGeometry>
        </mxCell>
        <mxCell id="vyA_7n0H-f_DJJAvZBDA-28" value="flask no db" style="rounded=1;whiteSpace=wrap;html=1;" vertex="1" parent="1">
          <mxGeometry x="420" y="570" width="120" height="60" as="geometry" />
        </mxCell>
      </root>
    </mxGraphModel>
  </diagram>
</mxfile>
